<?xml version="1.0" standalone="no"?>
<!DOCTYPE svg PUBLIC "-//W3C//DTD SVG 20010904//EN"
 "http://www.w3.org/TR/2001/REC-SVG-20010904/DTD/svg10.dtd">
<svg version="1.0" xmlns="http://www.w3.org/2000/svg"
 width="250.000000pt" height="250.000000pt" viewBox="0 0 250.000000 250.000000"
 preserveAspectRatio="xMidYMid meet">
<metadata>
Created by potrace 1.14, written by Peter Selinger 2001-2017
</metadata>
<g transform="translate(0.000000,250.000000) scale(0.100000,-0.100000)"
fill="#000000" stroke="none">
<path d="M0 1250 l0 -1250 1250 0 1250 0 0 1250 0 1250 -1250 0 -1250 0 0
-1250z m1070 270 c0 -18 -8 -20 -102 -22 l-103 -3 -3 -50 c-4 -62 11 -75 87
-75 63 0 87 11 78 34 -5 12 -20 16 -62 16 -48 0 -55 2 -55 20 0 18 7 20 60 20
68 0 100 -21 100 -65 0 -48 -31 -65 -119 -65 -95 0 -125 18 -136 80 -8 46 9
105 33 120 9 5 63 10 120 10 95 0 102 -1 102 -20z m92 -51 c5 -86 17 -99 96
-99 85 0 92 8 92 95 0 68 2 75 20 75 18 0 20 -7 20 -84 0 -79 -2 -86 -26 -105
-22 -17 -41 -21 -105 -21 -68 0 -81 3 -106 24 -25 22 -28 31 -31 105 -4 75 -3
81 16 81 17 0 20 -8 24 -71z m-497 -199 c42 -66 105 -62 135 9 9 22 19 31 36
31 30 0 30 -5 -5 -60 l-28 -45 29 -48 c15 -26 28 -50 28 -52 0 -3 -10 -5 -22
-5 -16 0 -30 12 -46 41 -22 38 -25 40 -65 37 -37 -3 -44 -7 -62 -40 -14 -27
-27 -38 -42 -38 -29 0 -29 5 6 60 l28 45 -29 44 c-33 53 -34 61 -8 61 12 0 29
-15 45 -40z m285 -65 c0 -98 -1 -105 -20 -105 -19 0 -20 7 -20 105 0 98 1 105
20 105 19 0 20 -7 20 -105z m169 68 c20 -21 51 -59 68 -85 18 -27 37 -48 43
-48 6 0 10 34 10 85 0 78 2 85 20 85 19 0 20 -7 20 -105 l0 -105 -34 0 c-36 0
-63 25 -134 124 -50 70 -62 63 -62 -39 0 -78 -2 -85 -20 -85 -19 0 -20 7 -20
105 l0 105 36 0 c29 0 44 -8 73 -37z m278 -5 c45 -68 102 -62 133 13 9 21 19
29 37 29 29 0 28 -7 -12 -70 -14 -22 -37 -46 -50 -52 -20 -9 -25 -19 -25 -50
0 -31 -3 -38 -20 -38 -17 0 -20 7 -20 38 0 32 -5 41 -25 50 -23 11 -85 94 -85
114 0 4 9 8 19 8 12 0 31 -17 48 -42z m273 -24 c0 -97 6 -104 93 -104 44 0 78
5 85 12 7 7 12 42 12 85 0 66 2 73 20 73 18 0 20 -7 20 -80 0 -73 -3 -83 -25
-105 -22 -23 -32 -25 -110 -25 -78 0 -88 2 -110 25 -22 22 -25 32 -25 105 0
73 2 80 20 80 18 0 20 -7 20 -66z m-517 -356 c8 -5 7 -8 -4 -8 -18 0 -31 61
-20 90 3 8 7 -5 9 -30 2 -24 9 -48 15 -52z m-73 -1 c-10 -9 -11 -9 -6 0 4 7
-2 18 -14 25 -11 7 -20 18 -20 25 0 7 12 1 27 -13 22 -20 24 -27 13 -37z m140
59 c0 -3 -4 -8 -10 -11 -5 -3 -10 -1 -10 4 0 6 5 11 10 11 6 0 10 -2 10 -4z
m110 -22 c0 -8 5 -14 10 -14 6 0 10 6 10 14 0 8 4 17 9 20 5 4 4 -10 -2 -29
-6 -19 -13 -35 -17 -35 -4 0 -11 16 -17 35 -6 19 -7 33 -2 29 5 -3 9 -12 9
-20z m93 19 c-21 -8 -15 -23 8 -23 15 0 19 5 15 15 -3 8 -1 15 4 15 6 0 10 -9
10 -19 0 -14 -8 -21 -27 -23 l-28 -4 25 -11 c24 -11 24 -12 3 -12 -16 -1 -24
6 -29 23 -7 28 1 46 19 45 9 0 9 -2 0 -6z"/>
</g>
</svg>
